<?xml version="1.0" standalone="no"?>
<!DOCTYPE svg PUBLIC "-//W3C//DTD SVG 20010904//EN"
 "http://www.w3.org/TR/2001/REC-SVG-20010904/DTD/svg10.dtd">
<svg version="1.0" xmlns="http://www.w3.org/2000/svg"
 width="684.000000px" height="624.000000px" viewBox="0 0 684.000000 624.000000"
 preserveAspectRatio="xMidYMid meet">
<metadata>
Created by potrace 1.16, written by Peter Selinger 2001-2019
</metadata>
<g transform="translate(0.000000,624.000000) scale(0.100000,-0.100000)"
fill="#000000" stroke="none">
<path d="M1201 6009 c-46 -14 -102 -51 -134 -89 -15 -17 -239 -456 -498 -974
-468 -934 -471 -942 -476 -1013 -9 -125 -60 -58 746 -977 455 -518 804 -916
1176 -1341 183 -209 409 -466 502 -571 92 -104 288 -328 435 -496 147 -169
282 -318 301 -332 96 -73 228 -73 325 1 19 14 186 199 371 412 184 212 366
418 402 456 36 39 187 209 335 379 267 308 593 680 1170 1338 669 762 827 945
852 988 23 39 27 56 27 127 l0 82 -471 943 c-260 519 -482 955 -494 971 -32
40 -99 82 -152 95 -60 15 -4365 15 -4417 1z m1789 -525 c0 -8 -165 -233 -411
-561 -112 -150 -242 -324 -289 -388 -46 -63 -89 -115 -95 -115 -6 0 -21 24
-34 53 -59 137 -414 984 -418 1000 -5 16 29 17 621 17 344 0 626 -3 626 -6z
m2153 -1 c3 -5 -91 -217 -208 -473 -271 -593 -279 -610 -286 -610 -3 0 -104
132 -224 293 -121 160 -301 402 -402 537 -101 134 -183 248 -183 252 0 10
1297 11 1303 1z m-3782 -464 c34 -79 117 -279 186 -444 69 -165 134 -319 145
-343 11 -23 18 -45 16 -47 -3 -3 -213 -4 -468 -3 l-462 3 242 485 c133 267
247 491 253 498 6 7 14 9 19 4 5 -5 36 -74 69 -153z m2236 -95 c92 -124 251
-337 352 -472 100 -135 185 -252 188 -259 4 -11 -124 -13 -722 -13 -581 0
-726 3 -722 13 2 7 74 104 158 217 85 113 243 325 352 473 109 147 205 267
212 267 8 0 90 -102 182 -226z m2218 -264 c129 -258 235 -472 235 -475 0 -3
-205 -5 -456 -5 -430 0 -456 1 -451 18 14 44 423 932 429 932 5 0 114 -211
243 -470z m-3858 -1015 c11 -8 32 -47 47 -87 101 -284 362 -1010 505 -1402 94
-258 171 -473 171 -478 0 -6 -4 -8 -9 -6 -4 2 -138 152 -296 333 -158 182
-338 386 -400 455 -249 276 -1034 1184 -1029 1192 3 4 227 8 497 8 419 0 496
-2 514 -15z m2338 6 c5 -8 -172 -502 -793 -2219 -42 -118 -81 -215 -85 -215
-5 -1 -37 77 -72 173 -95 261 -478 1321 -546 1510 -32 91 -106 295 -163 454
-58 160 -103 293 -100 298 7 12 1751 10 1759 -1z m1589 0 c6 -8 -247 -301
-882 -1025 -151 -171 -405 -460 -565 -643 -160 -183 -292 -331 -294 -330 -1 1
32 97 73 212 446 1245 632 1749 653 1773 l19 22 496 0 c279 0 497 -4 500 -9z"/>
</g>
</svg>
