<?xml version="1.0" standalone="no"?>
<!DOCTYPE svg PUBLIC "-//W3C//DTD SVG 20010904//EN"
 "http://www.w3.org/TR/2001/REC-SVG-20010904/DTD/svg10.dtd">
<svg version="1.0" xmlns="http://www.w3.org/2000/svg"
 width="822.000000px" height="830.000000px" viewBox="0 0 822.000000 830.000000"
 preserveAspectRatio="xMidYMid meet">
<metadata>
Created by potrace 1.16, written by Peter Selinger 2001-2019
</metadata>
<g transform="translate(0.000000,830.000000) scale(0.100000,-0.100000)"
fill="#000000" stroke="none">
<path d="M2340 8177 c-3 -3 -26 -8 -51 -11 -229 -27 -482 -158 -667 -346 -266
-271 -389 -691 -313 -1075 38 -190 111 -350 222 -491 33 -41 59 -76 59 -79 0
-3 -253 -5 -562 -5 -345 0 -588 -4 -628 -11 -40 -6 -92 -25 -135 -47 -58 -31
-77 -49 -111 -99 -23 -34 -51 -89 -63 -124 -20 -61 -21 -77 -21 -670 l0 -607
35 -31 36 -31 1727 2 c1688 3 1728 3 1759 22 18 11 42 34 55 50 l23 31 5 696
5 695 27 41 c46 70 59 73 373 73 301 0 304 0 360 -60 l30 -31 5 -692 c6 -775
2 -735 78 -794 l37 -28 1720 -3 c946 -1 1730 0 1742 3 12 3 32 15 43 27 20 21
20 33 20 642 l0 621 -25 69 c-39 110 -109 182 -222 228 l-58 23 -602 3 c-332
2 -603 6 -603 10 0 4 25 37 55 75 67 83 118 174 166 293 65 160 87 334 70 554
-31 407 -276 772 -637 948 -196 96 -286 120 -489 129 -171 7 -277 -8 -449 -64
-389 -127 -840 -398 -1168 -703 l-78 -71 -93 88 c-275 261 -684 517 -1031 647
-208 78 -296 97 -476 103 -91 3 -167 3 -170 0z m215 -811 c216 -48 649 -306
965 -574 41 -35 88 -79 103 -98 l28 -34 -23 -9 c-36 -15 -196 -32 -393 -41
-99 -5 -311 -16 -471 -25 -286 -15 -329 -14 -422 14 -80 24 -167 106 -210 199
-24 51 -26 69 -27 177 0 112 2 124 29 179 35 72 73 116 134 154 57 36 147 66
212 70 8 1 42 -5 75 -12z m3322 -17 c106 -36 169 -95 220 -205 25 -53 27 -70
27 -174 0 -103 -2 -121 -25 -171 -58 -124 -161 -199 -309 -223 -20 -3 -164 1
-320 9 -157 9 -375 20 -485 25 -197 10 -390 32 -403 45 -10 10 181 190 289
271 214 162 498 331 680 405 121 49 219 55 326 18z"/>
<path d="M529 3735 c-14 -8 -31 -27 -38 -42 -8 -21 -11 -440 -9 -1658 l3
-1630 24 -60 c32 -80 123 -171 206 -205 l60 -25 1395 -3 c767 -1 1405 0 1417
3 30 7 90 61 109 96 12 24 14 262 14 1721 0 1649 -1 1694 -19 1724 -11 18 -36
45 -57 60 l-37 29 -1521 2 c-1301 2 -1525 0 -1547 -12z"/>
<path d="M4633 3739 c-44 -13 -100 -70 -112 -116 -8 -26 -11 -572 -11 -1698 0
-1584 1 -1662 19 -1700 20 -44 79 -102 114 -110 12 -3 648 -4 1412 -3 l1390 3
56 23 c111 45 176 110 221 221 l23 56 3 1625 c2 1214 -1 1632 -9 1653 -25 61
71 57 -1571 56 -902 0 -1516 -5 -1535 -10z"/>
</g>
</svg>
